<?xml version="1.0" encoding="utf-8"?>
<!-- Generator: Adobe Illustrator 19.0.0, SVG Export Plug-In . SVG Version: 6.00 Build 0)  -->
<svg version="1.1" id="SvgjsSvg1011" xmlns:svgjs="http://svgjs.com/svgjs"
	 xmlns="http://www.w3.org/2000/svg" xmlns:xlink="http://www.w3.org/1999/xlink" x="0px" y="0px" viewBox="-579.5 831.6 13.3 11.3"
	 style="enable-background:new -579.5 831.6 13.3 11.3;" xml:space="preserve">
<style type="text/css">
	.st0{fill:#43230C;}
</style>
<path id="SvgjsPath1013" class="st0" d="M-577.2,836.4l2.9,2.8l5.7-6.2c0.4-0.4,1-0.4,1.3,0c0.4,0.4,0.4,1,0,1.3l-6.1,6.7
	c0,0.1-0.1,0.2-0.2,0.2c-0.2,0.2-0.4,0.3-0.7,0.3c-0.2,0-0.5-0.1-0.7-0.3c-0.1-0.1-0.1-0.1-0.1-0.2l-3.4-3.4c-0.4-0.4-0.4-1,0-1.3
	C-578.1,836.1-577.6,836.1-577.2,836.4z"/>
</svg>
