<?xml version="1.0" encoding="utf-8"?>
<!-- Generator: Adobe Illustrator 19.0.0, SVG Export Plug-In . SVG Version: 6.00 Build 0)  -->
<svg version="1.1" id="Слой_1" xmlns="http://www.w3.org/2000/svg" xmlns:xlink="http://www.w3.org/1999/xlink" x="0px" y="0px"
	 viewBox="0 0 35.2 27.3" style="enable-background:new 0 0 35.2 27.3;" xml:space="preserve">
<g>
	<path d="M9.6,20.9h1.6v-7.2H9.6V20.9z M19.2,20.9h1.6v-7.2h-1.6V20.9z M14.4,20.9H16v-7.2h-1.6V20.9z M24,20.9h1.6v-7.2H24V20.9z
		 M19.5,7.3l4.6-6.1L22.9,0l-5.4,7.3H0l3.2,16c0,2.2,1.8,4,4,4H28c2.2,0,4-1.8,4-4l3.2-16H19.5z M30.4,23.3c0,1.3-1.1,2.4-2.4,2.4
		H7.2c-1.3,0-2.4-1.1-2.4-2.4l-3-14.4h14.5l-0.4,0.5l1.1,1.1l1.2-1.7h15L30.4,23.3z M30.4,23.3"/>
</g>
</svg>
