<?xml version="1.0" encoding="utf-8"?>
<!-- Generator: Adobe Illustrator 19.0.0, SVG Export Plug-In . SVG Version: 6.00 Build 0)  -->
<svg version="1.1" id="Слой_1" xmlns="http://www.w3.org/2000/svg" xmlns:xlink="http://www.w3.org/1999/xlink" x="0px" y="0px"
	 viewBox="-247 376.9 99.8 88" style="enable-background:new -247 376.9 99.8 88;" xml:space="preserve">
<style type="text/css">
	.st0{clip-path:url(#SVGID_2_);fill:#000;}
	.st1{clip-path:url(#SVGID_4_);fill:#000;}
</style>
<g>
	<g>
		<g>
			<defs>
				<rect id="SVGID_1_" x="-247" y="376.9" width="99.8" height="88"/>
			</defs>
			<clipPath id="SVGID_2_">
				<use xlink:href="#SVGID_1_"  style="overflow:visible;"/>
			</clipPath>
			<path class="st0" d="M-207.2,394.3c2.5-1,3.5-4,2.4-6.4l-3.9-8.2c-1.1-2.3-3.8-3.4-6.2-2.3c-6.8,2.8-12.7,6.5-17.3,11.1
				c-5.7,5.4-9.5,11.5-11.6,18.3c-2.1,6.9-3.2,16.3-3.2,28.2v24.6c0,2.6,2.2,4.8,4.8,4.8h31.4c2.6,0,4.8-2.2,4.8-4.8v-31.5
				c0-2.6-2.2-4.8-4.8-4.8h-15c0.2-8.1,2.1-14.6,5.6-19.4C-217.3,399.9-213,396.7-207.2,394.3L-207.2,394.3z"/>
		</g>
		<g>
			<defs>
				<rect id="SVGID_3_" x="-247" y="376.9" width="99.8" height="88"/>
			</defs>
			<clipPath id="SVGID_4_">
				<use xlink:href="#SVGID_3_"  style="overflow:visible;"/>
			</clipPath>
			<path class="st1" d="M-150.7,394.3c2.5-1,3.5-4,2.4-6.4l-3.9-8.2c-1.1-2.3-3.8-3.4-6.2-2.3c-6.7,2.9-12.5,6.6-17.2,11.1
				c-5.7,5.4-9.6,11.6-11.7,18.4c-2.1,6.7-3.1,16.1-3.1,28.1v24.6c0,2.6,2.2,4.8,4.8,4.8h31.4c2.6,0,4.8-2.2,4.8-4.8v-31.5
				c0-2.6-2.2-4.8-4.8-4.8h-15.1c0.2-8.1,2.1-14.6,5.6-19.4C-160.8,399.9-156.5,396.7-150.7,394.3L-150.7,394.3z"/>
		</g>
	</g>
</g>
</svg>
