<?xml version="1.0" encoding="utf-8"?><svg xmlns="http://www.w3.org/2000/svg" xmlns:xlink="http://www.w3.org/1999/xlink"><symbol viewBox="0 0 9 6" id="arrow-btn" xmlns="http://www.w3.org/2000/svg"><path d="M4.5.999l-4.499 5h8.998z"/><path d="M4.5.999l-4.499 5h8.998z"/></symbol><symbol viewBox="0 0 35.2 27.3" id="icon-basket" xmlns="http://www.w3.org/2000/svg"><path d="M9.6 20.9h1.6v-7.2H9.6v7.2zm9.6 0h1.6v-7.2h-1.6v7.2zm-4.8 0H16v-7.2h-1.6v7.2zm9.6 0h1.6v-7.2H24v7.2zM19.5 7.3l4.6-6.1L22.9 0l-5.4 7.3H0l3.2 16c0 2.2 1.8 4 4 4H28c2.2 0 4-1.8 4-4l3.2-16H19.5zm10.9 16c0 1.3-1.1 2.4-2.4 2.4H7.2c-1.3 0-2.4-1.1-2.4-2.4l-3-14.4h14.5l-.4.5 1.1 1.1 1.2-1.7h15l-2.8 14.5zm0 0"/></symbol><symbol id="icon-close" viewBox="0 0 36.6 36.6" xmlns="http://www.w3.org/2000/svg"><style>.cst0{fill:#010202}.cst1{fill:#050606}</style><path id="cXMLID_15_" class="cst0" d="M0 16.5h36.6v3.6H0z"/><path id="cXMLID_14_" class="cst1" d="M16.5 0h3.6v36.6h-3.6z"/></symbol><symbol id="ig" viewBox="0 0 24.8 24.8" xmlns="http://www.w3.org/2000/svg"><style>.dst0{fill:#97c684}</style><path class="dst0" d="M18.5 24.8H6.3C2.8 24.8 0 22 0 18.5V6.3C0 2.8 2.8 0 6.3 0h12.2c3.5 0 6.3 2.8 6.3 6.3v12.2c0 3.5-2.8 6.3-6.3 6.3zM6.3 1.4c-2.7 0-4.9 2.2-4.9 4.9v12.2c0 2.7 2.2 4.9 4.9 4.9h12.2c2.7 0 4.9-2.2 4.9-4.9V6.3c0-2.7-2.2-4.9-4.9-4.9H6.3zm0 0"/><path class="dst0" d="M24.1 9.3h-8.8c-.4 0-.7-.3-.7-.7 0-.4.3-.7.7-.7h8.8c.4 0 .7.3.7.7 0 .4-.3.7-.7.7zm-14.8 0H.7C.3 9.3 0 9 0 8.6c0-.4.3-.7.7-.7h8.6c.4 0 .7.3.7.7 0 .4-.3.7-.7.7zm0 0"/><path class="dst0" d="M12.4 18c-3.1 0-5.5-2.5-5.5-5.5C6.9 9.4 9.4 7 12.4 7c3.1 0 5.5 2.5 5.5 5.5.1 3-2.4 5.5-5.5 5.5zm0-9.7c-2.3 0-4.1 1.8-4.1 4.1s1.8 4.1 4.1 4.1 4.1-1.8 4.1-4.1c0-2.2-1.8-4.1-4.1-4.1zm8-.8h-3.2c-.4 0-.7-.3-.7-.7V3.6c0-.4.3-.7.7-.7h3.2c.4 0 .7.3.7.7v3.2c.1.4-.3.7-.7.7zM18 6.1h1.8V4.3H18v1.8zm0 0"/></symbol><symbol id="sent-mail" viewBox="0 0 267.8 248" xmlns="http://www.w3.org/2000/svg"><style>.est0{clip-path:url(#eSVGID_2_)}</style><defs><path id="eSVGID_1_" d="M0 0h267.8v248H0z"/></defs><clipPath id="eSVGID_2_"><use xlink:href="#eSVGID_1_" overflow="visible"/></clipPath><path class="est0" d="M266.2 1c-1.2-1-2.9-1.3-4.3-.6L2.3 121c-1.4.7-2.3 2-2.3 3.6 0 1.5.9 3 2.2 3.6l73.5 36.1c1.3.7 3 .5 4.2-.4l71.4-53.4-56.1 57.7c-.8.8-1.2 1.9-1.1 3.1l5.6 72.7c.1 1.6 1.2 3 2.7 3.5.4.1.8.2 1.3.2 1.1 0 2.3-.5 3-1.4l39-45.2 48.2 23c1 .5 2.3.5 3.3.1 1.1-.5 1.9-1.4 2.2-2.5l68-216.5c.5-1.5 0-3.2-1.2-4.2zm0 0"/></symbol></svg>