<?xml version="1.0" encoding="utf-8"?>
<!-- Generator: Adobe Illustrator 19.0.0, SVG Export Plug-In . SVG Version: 6.00 Build 0)  -->
<svg version="1.1" id="Слой_1" xmlns="http://www.w3.org/2000/svg" xmlns:xlink="http://www.w3.org/1999/xlink" x="0px" y="0px"
	 viewBox="0 0 24.8 24.8" style="enable-background:new 0 0 24.8 24.8;" xml:space="preserve">
<style type="text/css">
	.st0{fill:#97C684;}
</style>
<g>
	<path class="st0" d="M18.5,24.8H6.3C2.8,24.8,0,22,0,18.5V6.3C0,2.8,2.8,0,6.3,0h12.2c3.5,0,6.3,2.8,6.3,6.3v12.2
		C24.8,22,22,24.8,18.5,24.8L18.5,24.8z M6.3,1.4c-2.7,0-4.9,2.2-4.9,4.9v12.2c0,2.7,2.2,4.9,4.9,4.9h12.2c2.7,0,4.9-2.2,4.9-4.9
		V6.3c0-2.7-2.2-4.9-4.9-4.9L6.3,1.4L6.3,1.4z M6.3,1.4"/>
	<path class="st0" d="M24.1,9.3h-8.8c-0.4,0-0.7-0.3-0.7-0.7c0-0.4,0.3-0.7,0.7-0.7h8.8c0.4,0,0.7,0.3,0.7,0.7
		C24.8,9,24.5,9.3,24.1,9.3L24.1,9.3z M24.1,9.3"/>
	<path class="st0" d="M9.3,9.3H0.7C0.3,9.3,0,9,0,8.6c0-0.4,0.3-0.7,0.7-0.7h8.6c0.4,0,0.7,0.3,0.7,0.7C10,9,9.7,9.3,9.3,9.3
		L9.3,9.3z M9.3,9.3"/>
	<path class="st0" d="M12.4,18c-3.1,0-5.5-2.5-5.5-5.5c0-3.1,2.5-5.5,5.5-5.5c3.1,0,5.5,2.5,5.5,5.5C18,15.5,15.5,18,12.4,18
		L12.4,18z M12.4,8.3c-2.3,0-4.1,1.8-4.1,4.1c0,2.3,1.8,4.1,4.1,4.1c2.3,0,4.1-1.8,4.1-4.1C16.5,10.2,14.7,8.3,12.4,8.3L12.4,8.3z
		 M12.4,8.3"/>
	<path class="st0" d="M20.4,7.5h-3.2c-0.4,0-0.7-0.3-0.7-0.7V3.6c0-0.4,0.3-0.7,0.7-0.7h3.2c0.4,0,0.7,0.3,0.7,0.7v3.2
		C21.2,7.2,20.8,7.5,20.4,7.5L20.4,7.5z M18,6.1h1.8V4.3H18V6.1z M18,6.1"/>
</g>
</svg>
