<svg id="Слой_1" xmlns="http://www.w3.org/2000/svg" xmlns:xlink="http://www.w3.org/1999/xlink" viewBox="-247 376.9 99.8 88"><style>.st0,.st1{clip-path:url(#SVGID_2_);fill:#000}.st1{clip-path:url(#SVGID_4_)}</style><defs><path id="SVGID_1_" d="M-247 376.9h99.8v88H-247z"/></defs><clipPath id="SVGID_2_"><use xlink:href="#SVGID_1_" overflow="visible"/></clipPath><path class="st0" d="M-207.2 394.3c2.5-1 3.5-4 2.4-6.4l-3.9-8.2c-1.1-2.3-3.8-3.4-6.2-2.3-6.8 2.8-12.7 6.5-17.3 11.1-5.7 5.4-9.5 11.5-11.6 18.3-2.1 6.9-3.2 16.3-3.2 28.2v24.6c0 2.6 2.2 4.8 4.8 4.8h31.4c2.6 0 4.8-2.2 4.8-4.8v-31.5c0-2.6-2.2-4.8-4.8-4.8h-15c.2-8.1 2.1-14.6 5.6-19.4 2.9-4 7.2-7.2 13-9.6z"/><g><defs><path id="SVGID_3_" d="M-247 376.9h99.8v88H-247z"/></defs><clipPath id="SVGID_4_"><use xlink:href="#SVGID_3_" overflow="visible"/></clipPath><path class="st1" d="M-150.7 394.3c2.5-1 3.5-4 2.4-6.4l-3.9-8.2c-1.1-2.3-3.8-3.4-6.2-2.3-6.7 2.9-12.5 6.6-17.2 11.1-5.7 5.4-9.6 11.6-11.7 18.4-2.1 6.7-3.1 16.1-3.1 28.1v24.6c0 2.6 2.2 4.8 4.8 4.8h31.4c2.6 0 4.8-2.2 4.8-4.8v-31.5c0-2.6-2.2-4.8-4.8-4.8h-15.1c.2-8.1 2.1-14.6 5.6-19.4 2.9-4 7.2-7.2 13-9.6z"/></g></svg>