<svg id="Слой_1" xmlns="http://www.w3.org/2000/svg" xmlns:xlink="http://www.w3.org/1999/xlink" viewBox="0 0 267.8 248"><style>.st0{clip-path:url(#SVGID_2_)}</style><defs><path id="SVGID_1_" d="M0 0h267.8v248H0z"/></defs><clipPath id="SVGID_2_"><use xlink:href="#SVGID_1_" overflow="visible"/></clipPath><path class="st0" d="M266.2 1c-1.2-1-2.9-1.3-4.3-.6L2.3 121c-1.4.7-2.3 2-2.3 3.6 0 1.5.9 3 2.2 3.6l73.5 36.1c1.3.7 3 .5 4.2-.4l71.4-53.4-56.1 57.7c-.8.8-1.2 1.9-1.1 3.1l5.6 72.7c.1 1.6 1.2 3 2.7 3.5.4.1.8.2 1.3.2 1.1 0 2.3-.5 3-1.4l39-45.2 48.2 23c1 .5 2.3.5 3.3.1 1.1-.5 1.9-1.4 2.2-2.5l68-216.5c.5-1.5 0-3.2-1.2-4.2zm0 0"/></svg>